<?xml version="1.0" encoding="utf-8"?>
<!-- Generator: Adobe Illustrator 22.0.1, SVG Export Plug-In . SVG Version: 6.00 Build 0)  -->
<svg version="1.1" id="Camada_1" xmlns="http://www.w3.org/2000/svg" xmlns:xlink="http://www.w3.org/1999/xlink" x="0px" y="0px"
	 viewBox="0 0 24 24" style="enable-background:new 0 0 24 24;" xml:space="preserve">
<g>
	<path d="M3.7,5.1H6v1.1c0,1.3,1,2.3,2.3,2.3h6.8c1.3,0,2.3-1,2.3-2.3V5.1h2.3v5.7h2.3V5.1c0-1.3-1-2.3-2.3-2.3h-4.8
		c-0.5-1.3-1.7-2.3-3.2-2.3S9,1.5,8.5,2.8H3.7c-1.3,0-2.3,1-2.3,2.3V21c0,1.3,1,2.3,2.3,2.3h6.8V21H3.7V5.1z M11.7,2.8
		c0.6,0,1.1,0.5,1.1,1.1s-0.5,1.1-1.1,1.1S10.6,4.6,10.6,4S11.1,2.8,11.7,2.8z"/>
	<path d="M22.8,13.3c-0.5-0.5-1.2-0.5-1.7,0l-5.4,5.4l-2.6-2.6c-0.5-0.5-1.2-0.5-1.7,0c-0.5,0.5-0.5,1.2,0,1.7l3.5,3.5
		c0.4,0.4,1.2,0.4,1.6,0l6.3-6.3C23.3,14.6,23.3,13.8,22.8,13.3z"/>
</g>
</svg>
