<?xml version="1.0" encoding="utf-8"?>
<!-- Generator: Adobe Illustrator 22.0.1, SVG Export Plug-In . SVG Version: 6.00 Build 0)  -->
<svg version="1.1" id="Camada_1" xmlns="http://www.w3.org/2000/svg" xmlns:xlink="http://www.w3.org/1999/xlink" x="0px" y="0px"
	 viewBox="0 0 54 54" style="enable-background:new 0 0 54 54;" xml:space="preserve">
<g>
	<path d="M50.4,41.2c0-0.3,0.1-0.6,0.1-0.9V10.1c0-5.5-4.5-10-10-10H10.2c-5.5,0-10,4.5-10,10v30.2c0,5.5,4.5,10,10,10h30.2
		c0.2,0,0.4,0,0.6,0c1.1,2.1,3.4,3.5,6,3.5c3.7,0,6.8-3,6.8-6.8C53.8,44.6,52.4,42.4,50.4,41.2z M40.1,47c0,0.4,0,0.9,0.1,1.3h-30
		v0.1c-4.4,0-8-3.6-8-8V10.1c0-4.4,3.6-8,8-8h30.2c4.4,0,8,3.6,8,8v30.2v0.1c-0.5-0.1-1-0.2-1.5-0.2C43.2,40.2,40.1,43.2,40.1,47z
		 M51,48.1h-3h-2h-3c-0.5,0-1-0.5-1-1s0.5-1,1-1h3h2h3c0.6,0,1,0.5,1,1S51.6,48.1,51,48.1z"/>
	<path d="M13.2,13.9h3.5v1.7c0,1.9,1.6,3.5,3.5,3.5h10.5c1.9,0,3.5-1.6,3.5-3.5v-1.7h3.5v8.7h3.5v-8.7c0-1.9-1.6-3.5-3.5-3.5h-7.3
		c-0.7-2-2.7-3.5-4.9-3.5s-4.2,1.5-4.9,3.5h-7.3c-1.9,0-3.5,1.6-3.5,3.5v24.5c0,1.9,1.6,3.5,3.5,3.5h10.5v-3.5H13.2V13.9z
		 M25.4,10.4c1,0,1.7,0.8,1.7,1.7s-0.8,1.7-1.7,1.7s-1.7-0.8-1.7-1.7S24.4,10.4,25.4,10.4z"/>
	<path d="M42.4,26.5c-0.7-0.7-1.9-0.7-2.6,0l-8.3,8.3l-4-3.9c-0.7-0.7-1.9-0.7-2.6,0c-0.7,0.7-0.7,1.9,0,2.6l5.3,5.3
		c0.7,0.7,1.8,0.7,2.5,0l9.7-9.7C43.1,28.4,43.1,27.2,42.4,26.5z"/>
</g>
</svg>
