<?xml version="1.0" encoding="utf-8"?>
<!-- Generator: Adobe Illustrator 22.0.1, SVG Export Plug-In . SVG Version: 6.00 Build 0)  -->
<svg version="1.1" id="Camada_1" xmlns="http://www.w3.org/2000/svg" xmlns:xlink="http://www.w3.org/1999/xlink" x="0px" y="0px"
	 viewBox="0 0 24 24" style="enable-background:new 0 0 24 24;" xml:space="preserve">
<style type="text/css">
	.st0{fill:none;}
</style>
<g>
	<path class="st0" d="M0,0h24v24H0V0z"/>
</g>
<g>
	<g>
		<path d="M14.2,10.4l-5-3.6c-0.7-0.5-1.6-0.5-2.3,0l-5,3.6C1.3,10.8,1,11.4,1,12v8c0,0.5,0.5,1,1,1h4v-6h4v6h4c0.6,0,1-0.5,1-1v-8
			C15,11.4,14.7,10.8,14.2,10.4z"/>
		<path d="M21,3H12c-1.1,0-2,0.9-2,2l0.1,0.1c0.1,0.1,0.2,0.1,0.2,0.1l5,3.6c0.8,0.5,1.3,1.3,1.5,2.2H19v2h-2v2h2v2h-2v3v1h4
			c1.1,0,2-0.9,2-2V5C23,3.9,22.1,3,21,3z M19,9h-2V7h2V9z"/>
	</g>
</g>
</svg>
