<?xml version="1.0" encoding="utf-8"?>
<!-- Generator: Adobe Illustrator 22.0.1, SVG Export Plug-In . SVG Version: 6.00 Build 0)  -->
<svg version="1.1" id="Camada_1" xmlns="http://www.w3.org/2000/svg" xmlns:xlink="http://www.w3.org/1999/xlink" x="0px" y="0px"
	 viewBox="0 0 54 54" style="enable-background:new 0 0 54 54;" xml:space="preserve">
<style type="text/css">
	.st0{fill:none;}
</style>
<g>
	<g>
		<path class="st0" d="M15.3,13.3h24v24h-24C15.3,37.3,15.3,13.3,15.3,13.3z"/>
	</g>
	<g>
		<g>
			<path d="M29,22.7l-8.4-6c-1.2-0.8-2.7-0.8-3.9,0l-8.4,6C7.5,23.3,7,24.3,7,25.4v13.3c0,0.9,0.8,1.7,1.7,1.7h6.7v-10h6.7v10h6.7
				c0.9,0,1.7-0.8,1.7-1.7V25.4C30.4,24.3,29.9,23.3,29,22.7z"/>
			<path d="M40.5,10.3H25.4c-1.8,0-3.3,1.5-3.3,3.3l0.2,0.2c0.1,0.1,0.3,0.2,0.4,0.2l8.4,6c1.3,0.9,2.2,2.2,2.6,3.7h3.6V27H34v3.3
				h3.3v3.3H34v5v1.7h6.7c1.8,0,3.3-1.5,3.3-3.3V13.6C43.8,11.8,42.4,10.3,40.5,10.3z M37.1,20.3h-3.3V17h3.3V20.3z"/>
		</g>
	</g>
	<path d="M50.4,41.2c0-0.3,0.1-0.6,0.1-0.9V10.1c0-5.5-4.5-10-10-10H10.2c-5.5,0-10,4.5-10,10v30.2c0,5.5,4.5,10,10,10h30.2
		c0.2,0,0.4,0,0.6,0c1.1,2.1,3.4,3.5,6,3.5c3.7,0,6.8-3,6.8-6.8C53.8,44.6,52.4,42.4,50.4,41.2z M40.2,47.1c0,0.4,0,0.9,0.1,1.3
		H10.2c-4.4,0-8-3.6-8-8V10.1c0-4.4,3.6-8,8-8h30.2c4.4,0,8,3.6,8,8v30.2v0.1c-0.5-0.1-1-0.2-1.5-0.2C43.2,40.3,40.2,43.3,40.2,47.1
		z M45.4,50.8c-0.1,0.1-0.2,0.1-0.3,0.1h-1.6c-0.2,0-0.4-0.2-0.4-0.4l0.1-1.6c0-0.1,0-0.2,0.1-0.3l4.3-4.3l2.1,2.1L45.4,50.8z
		 M51.5,44.8L50.3,46l-2.1-2.1l1.2-1.2c0.2-0.2,0.4-0.2,0.6,0l1.6,1.6C51.6,44.4,51.6,44.6,51.5,44.8z"/>
</g>
</svg>
