<?xml version="1.0" encoding="utf-8"?>
<!-- Generator: Adobe Illustrator 22.0.1, SVG Export Plug-In . SVG Version: 6.00 Build 0)  -->
<svg version="1.1" id="Camada_1" xmlns="http://www.w3.org/2000/svg" xmlns:xlink="http://www.w3.org/1999/xlink" x="0px" y="0px"
	 viewBox="0 0 24 24" style="enable-background:new 0 0 24 24;" xml:space="preserve">
<path d="M14.3,10.8L8.8,6.9C8,6.3,7,6.3,6.3,6.9l-5.5,3.9c-0.5,0.4-0.8,1-0.8,1.8v8.6c0,0.6,0.5,1.1,1.1,1.1h4.4v-6.5h4.4v6.5h4.4
	c0.6,0,1.1-0.5,1.1-1.1v-8.6C15.2,11.8,14.8,11.2,14.3,10.8z"/>
<path d="M24,20.1V4.8c-0.1-1.2-1-2.1-2.3-2.1h-9.8c-1.2,0-2.1,1-2.1,2.1L9.9,5C10,5,10.1,5.1,10.2,5.1L15.6,9
	c0.8,0.6,1.4,1.4,1.7,2.4h2.3v2.1h-2.1v2.1h2.1v2.1h-2.1v3.2v1.1h4.4C23,22.2,24,21.2,24,20.1z M19.5,9.2h-2.1V7.1h2.1V9.2z"/>
</svg>
