<?xml version="1.0" encoding="utf-8"?>
<!-- Generator: Adobe Illustrator 22.0.1, SVG Export Plug-In . SVG Version: 6.00 Build 0)  -->
<svg version="1.1" id="Camada_1" xmlns="http://www.w3.org/2000/svg" xmlns:xlink="http://www.w3.org/1999/xlink" x="0px" y="0px"
	 viewBox="0 0 24 24" style="enable-background:new 0 0 24 24;" xml:space="preserve">
<path d="M12.1,2.3c-3.1,0-6,1.1-8.2,3C3.2,6,3,7.1,3.5,7.9l7.7,13.7c0.4,0.7,1.4,0.7,1.8,0l7.7-13.7C21.2,7.1,21,6,20.3,5.3
	C18.1,3.5,15.2,2.3,12.1,2.3z M6.9,7.6c0-1.1,0.9-2.1,2.1-2.1s2.1,0.9,2.1,2.1S10.1,9.7,9,9.7S6.9,8.7,6.9,7.6z M12.1,15.9
	c-1.1,0-2.1-0.9-2.1-2.1s0.9-2.1,2.1-2.1s2.1,0.9,2.1,2.1S13.2,15.9,12.1,15.9z"/>
</svg>
