<?xml version="1.0" encoding="utf-8"?>
<!-- Generator: Adobe Illustrator 22.0.1, SVG Export Plug-In . SVG Version: 6.00 Build 0)  -->
<svg version="1.1" id="Camada_1" xmlns="http://www.w3.org/2000/svg" xmlns:xlink="http://www.w3.org/1999/xlink" x="0px" y="0px"
	 viewBox="0 0 54 54" style="enable-background:new 0 0 54 54;" xml:space="preserve">
<g>
	<path d="M50.4,41.2c0-0.3,0.1-0.6,0.1-0.9V10.1c0-5.5-4.5-10-10-10H10.2c-5.5,0-10,4.5-10,10v30.2c0,5.5,4.5,10,10,10h30.2
		c0.2,0,0.4,0,0.6,0c1.1,2.1,3.4,3.5,6,3.5c3.7,0,6.8-3,6.8-6.8C53.8,44.6,52.4,42.4,50.4,41.2z M40.1,47c0,0.4,0,0.9,0.1,1.3h-30
		v0.1c-4.4,0-8-3.6-8-8V10.1c0-4.4,3.6-8,8-8h30.2c4.4,0,8,3.6,8,8v30.2v0.1c-0.5-0.1-1-0.2-1.5-0.2C43.2,40.2,40.1,43.2,40.1,47z
		 M51,48.1h-3h-2h-3c-0.5,0-1-0.5-1-1s0.5-1,1-1h3h2h3c0.6,0,1,0.5,1,1S51.6,48.1,51,48.1z"/>
	<path d="M25.3,8.3c-5.3,0-10.2,1.9-14,5.2c-1.3,1.1-1.5,3-0.7,4.4l13.2,23.4c0.7,1.2,2.4,1.2,3.1,0L40,17.8
		c0.8-1.4,0.6-3.3-0.7-4.4C35.5,10.2,30.6,8.3,25.3,8.3z M16.4,17.2c0-2,1.6-3.6,3.6-3.6s3.6,1.6,3.6,3.6c0,2-1.6,3.6-3.6,3.6
		S16.4,19.2,16.4,17.2z M25.3,31.5c-2,0-3.6-1.6-3.6-3.6c0-2,1.6-3.6,3.6-3.6c2,0,3.6,1.6,3.6,3.6C28.9,29.9,27.3,31.5,25.3,31.5z"
		/>
</g>
</svg>
