<?xml version="1.0" encoding="utf-8"?>
<!-- Generator: Adobe Illustrator 22.0.1, SVG Export Plug-In . SVG Version: 6.00 Build 0)  -->
<svg version="1.1" id="Camada_1" xmlns="http://www.w3.org/2000/svg" xmlns:xlink="http://www.w3.org/1999/xlink" x="0px" y="0px"
	 viewBox="0 0 24 24" style="enable-background:new 0 0 24 24;" xml:space="preserve">
<g>
	<path d="M21.8,5.3c-1.3-0.6-2.8-0.8-4.3-0.8c-2,0-4,0.4-5.5,1.5c-1.5-1.1-3.5-1.5-5.5-1.5c-1.5,0-3,0.2-4.3,0.8
		C1.5,5.6,1,6.3,1,7.1v11.3c0,1.3,1.2,2.3,2.5,1.9c1-0.3,2-0.4,3-0.4c1.6,0,3.2,0.3,4.6,0.9c0.6,0.3,1.3,0.3,1.9,0
		c1.3-0.7,3-0.9,4.6-0.9c1,0,2,0.1,3,0.4c1.3,0.3,2.5-0.6,2.5-1.9V7.1C23,6.3,22.5,5.6,21.8,5.3z M21,17.2c0,0.6-0.6,1.1-1.2,1
		C19,18.1,18.3,18,17.5,18c-1.7,0-4.2,0.6-5.5,1.5V8c1.3-0.8,3.8-1.5,5.5-1.5c0.9,0,1.8,0.1,2.7,0.3c0.5,0.1,0.8,0.5,0.8,1V17.2z"/>
	<path d="M19.1,9.1c-1.8-0.2-3.8,0-5.4,0.5c-0.4,0.1-0.6,0.5-0.5,0.9c0.1,0.3,0.4,0.5,0.7,0.5c0.1,0,0.2,0,0.2,0
		c1.3-0.4,3.1-0.6,4.7-0.4c0.4,0,0.8-0.3,0.8-0.7C19.8,9.5,19.5,9.2,19.1,9.1z"/>
	<path d="M19.1,11.8c-1.8-0.2-3.8,0-5.4,0.5c-0.4,0.1-0.6,0.5-0.5,0.9c0.1,0.3,0.4,0.5,0.7,0.5c0.1,0,0.2,0,0.2,0
		c1.3-0.4,3.1-0.6,4.7-0.4c0.4,0,0.8-0.3,0.8-0.7C19.8,12.2,19.5,11.8,19.1,11.8z"/>
	<path d="M19.1,14.4c-1.8-0.2-3.8,0-5.4,0.5c-0.4,0.1-0.6,0.5-0.5,0.9c0.1,0.3,0.4,0.5,0.7,0.5c0.1,0,0.2,0,0.2,0
		c1.3-0.4,3.1-0.6,4.7-0.4c0.4,0,0.8-0.3,0.8-0.7C19.8,14.8,19.5,14.5,19.1,14.4z"/>
</g>
</svg>
