<?xml version="1.0" encoding="utf-8"?>
<!-- Generator: Adobe Illustrator 22.0.1, SVG Export Plug-In . SVG Version: 6.00 Build 0)  -->
<svg version="1.1" id="Camada_1" xmlns="http://www.w3.org/2000/svg" xmlns:xlink="http://www.w3.org/1999/xlink" x="0px" y="0px"
	 viewBox="0 0 54 54" style="enable-background:new 0 0 54 54;" xml:space="preserve">
<g>
	<path d="M50.4,41.2c0-0.3,0.1-0.6,0.1-0.9V10.1c0-5.5-4.5-10-10-10H10.2c-5.5,0-10,4.5-10,10v30.2c0,5.5,4.5,10,10,10h30.2
		c0.2,0,0.4,0,0.6,0c1.1,2.1,3.4,3.5,6,3.5c3.7,0,6.8-3,6.8-6.8C53.8,44.6,52.4,42.4,50.4,41.2z M40.1,47c0,0.4,0,0.9,0.1,1.3h-30
		v0.1c-4.4,0-8-3.6-8-8V10.1c0-4.4,3.6-8,8-8h30.2c4.4,0,8,3.6,8,8v30.2v0.1c-0.5-0.1-1-0.2-1.5-0.2C43.2,40.2,40.1,43.2,40.1,47z
		 M51,48.1h-3h-2h-3c-0.5,0-1-0.5-1-1s0.5-1,1-1h3h2h3c0.6,0,1,0.5,1,1S51.6,48.1,51,48.1z"/>
	<path d="M45.1,35.4v-20c0-1.4-0.9-2.7-2.2-3.3c-2.3-1-5-1.4-7.6-1.4c-3.5,0-7.2,0.7-9.7,2.7c-2.6-1.9-6.3-2.7-9.7-2.7
		c-2.6,0-5.3,0.4-7.6,1.4C7,12.7,6.1,14,6.1,15.4v20c0,2.3,2.2,4,4.4,3.4c1.7-0.4,3.6-0.6,5.4-0.6c2.8,0,5.7,0.5,8.1,1.6
		c1.1,0.5,2.3,0.5,3.3,0c2.4-1.2,5.3-1.6,8.1-1.6c1.8,0,3.6,0.2,5.4,0.6C42.9,39.4,45.1,37.7,45.1,35.4z M41.5,33.3
		c0,1.1-1,1.9-2.1,1.7c-1.3-0.2-2.7-0.4-4.1-0.4c-3,0-7.4,1.2-9.7,2.7V16.9c2.4-1.5,6.7-2.7,9.7-2.7c1.6,0,3.2,0.2,4.8,0.5
		c0.8,0.2,1.4,0.9,1.4,1.7V33.3z"/>
	<path d="M38.2,18.9c-3.2-0.4-6.8-0.1-9.5,0.8c-0.7,0.2-1.1,1-0.9,1.7c0.2,0.6,0.7,0.9,1.3,0.9c0.1,0,0.3,0,0.4-0.1
		c2.4-0.8,5.5-1,8.4-0.7c0.7,0.1,1.4-0.4,1.5-1.2C39.5,19.6,38.9,19,38.2,18.9z"/>
	<path d="M38.2,23.6c-3.2-0.4-6.8-0.1-9.5,0.8c-0.7,0.2-1.1,1-0.9,1.7c0.2,0.6,0.7,0.9,1.3,0.9c0.1,0,0.3,0,0.4-0.1
		c2.4-0.8,5.5-1,8.4-0.7c0.7,0.1,1.4-0.4,1.5-1.2C39.5,24.3,38.9,23.7,38.2,23.6z"/>
	<path d="M38.2,28.3c-3.2-0.4-6.8-0.1-9.5,0.8c-0.7,0.2-1.1,1-0.9,1.7c0.2,0.6,0.7,0.9,1.3,0.9c0.1,0,0.3,0,0.4-0.1
		c2.4-0.8,5.5-1,8.4-0.7c0.7,0.1,1.4-0.4,1.5-1.2C39.5,29,38.9,28.4,38.2,28.3z"/>
</g>
</svg>
