<?xml version="1.0" encoding="utf-8"?>
<!-- Generator: Adobe Illustrator 22.0.1, SVG Export Plug-In . SVG Version: 6.00 Build 0)  -->
<svg version="1.1" id="Camada_1" xmlns="http://www.w3.org/2000/svg" xmlns:xlink="http://www.w3.org/1999/xlink" x="0px" y="0px"
	 viewBox="0 0 24 24" style="enable-background:new 0 0 24 24;" xml:space="preserve">
<path d="M19,3H5C3.9,3,3,3.9,3,5v14c0,1.1,0.9,2,2,2h14c1.1,0,2-0.9,2-2V5C21,3.9,20.1,3,19,3z M8,17c-0.6,0-1-0.5-1-1v-5
	c0-0.6,0.4-1,1-1s1,0.4,1,1v5C9,16.5,8.6,17,8,17z M12,17c-0.6,0-1-0.5-1-1V8c0-0.6,0.4-1,1-1s1,0.4,1,1v8C13,16.5,12.6,17,12,17z
	 M16,17c-0.6,0-1-0.5-1-1v-2c0-0.6,0.4-1,1-1c0.5,0,1,0.4,1,1v2C17,16.5,16.5,17,16,17z"/>
</svg>
