<?xml version="1.0" encoding="utf-8"?>
<!-- Generator: Adobe Illustrator 22.0.1, SVG Export Plug-In . SVG Version: 6.00 Build 0)  -->
<svg version="1.1" id="Camada_1" xmlns="http://www.w3.org/2000/svg" xmlns:xlink="http://www.w3.org/1999/xlink" x="0px" y="0px"
	 viewBox="0 0 54 54" style="enable-background:new 0 0 54 54;" xml:space="preserve">
<g>
	<path d="M50.4,41.2c0-0.3,0.1-0.6,0.1-0.9V10.1c0-5.5-4.5-10-10-10H10.2c-5.5,0-10,4.5-10,10v30.2c0,5.5,4.5,10,10,10h30.2
		c0.2,0,0.4,0,0.6,0c1.1,2.1,3.4,3.5,6,3.5c3.7,0,6.8-3,6.8-6.8C53.8,44.6,52.4,42.4,50.4,41.2z M40.2,47.1c0,0.4,0,0.9,0.1,1.3
		H10.2c-4.4,0-8-3.6-8-8V10.1c0-4.4,3.6-8,8-8h30.2c4.4,0,8,3.6,8,8v30.2v0.1c-0.5-0.1-1-0.2-1.5-0.2C43.2,40.3,40.2,43.3,40.2,47.1
		z M45.4,50.8c-0.1,0.1-0.2,0.1-0.3,0.1h-1.6c-0.2,0-0.4-0.2-0.4-0.4l0.1-1.6c0-0.1,0-0.2,0.1-0.3l4.3-4.3l2.1,2.1L45.4,50.8z
		 M51.5,44.8L50.3,46l-2.1-2.1l1.2-1.2c0.2-0.2,0.4-0.2,0.6,0l1.6,1.6C51.6,44.4,51.6,44.6,51.5,44.8z"/>
	<path d="M38.5,8.6H12.4c-2,0-3.7,1.7-3.7,3.7v26.1c0,2,1.7,3.7,3.7,3.7h26.1c2,0,3.7-1.7,3.7-3.7V12.4C42.2,10.3,40.5,8.6,38.5,8.6
		z M19.9,32.8c0,1-0.8,1.9-1.9,1.9s-1.9-0.8-1.9-1.9v-9.3c0-1,0.8-1.9,1.9-1.9s1.9,0.8,1.9,1.9V32.8z M27.3,32.8
		c0,1-0.8,1.9-1.9,1.9c-1,0-1.9-0.8-1.9-1.9V17.9c0-1,0.8-1.9,1.9-1.9c1,0,1.9,0.8,1.9,1.9V32.8z M34.8,32.8c0,1-0.8,1.9-1.9,1.9
		c-1,0-1.9-0.8-1.9-1.9v-3.7c0-1,0.8-1.9,1.9-1.9c1,0,1.9,0.8,1.9,1.9V32.8z"/>
</g>
</svg>
