<?xml version="1.0" encoding="utf-8"?>
<!-- Generator: Adobe Illustrator 22.0.1, SVG Export Plug-In . SVG Version: 6.00 Build 0)  -->
<svg version="1.1" id="Camada_1" xmlns="http://www.w3.org/2000/svg" xmlns:xlink="http://www.w3.org/1999/xlink" x="0px" y="0px"
	 viewBox="0 0 24 24" style="enable-background:new 0 0 24 24;" xml:space="preserve">
<g>
	<path d="M16.2,10.7c1.8,0,3.2-1.4,3.2-3.2S18,4.3,16.2,4.3s-3.2,1.4-3.2,3.2S14.5,10.7,16.2,10.7z"/>
	<path d="M7.8,10.7c1.8,0,3.2-1.4,3.2-3.2S9.5,4.3,7.8,4.3S4.6,5.7,4.6,7.5S6,10.7,7.8,10.7z"/>
	<path d="M7.8,12.8c-2.5,0-7.4,1.2-7.4,3.7v1.6c0,0.6,0.5,1.1,1.1,1.1h12.7c0.6,0,1.1-0.5,1.1-1.1v-1.6C15.2,14,10.2,12.8,7.8,12.8z
		"/>
	<path d="M16.2,12.8c-0.3,0-0.7,0-1,0.1c0,0,0,0,0,0c1.2,0.9,2,2,2,3.6v1.6c0,0.4-0.1,0.7-0.2,1.1h5.5c0.6,0,1.1-0.5,1.1-1.1v-1.6
		C23.6,14,18.7,12.8,16.2,12.8z"/>
</g>
</svg>
