<?xml version="1.0" encoding="utf-8"?>
<!-- Generator: Adobe Illustrator 22.0.1, SVG Export Plug-In . SVG Version: 6.00 Build 0)  -->
<svg version="1.1" id="Camada_1" xmlns="http://www.w3.org/2000/svg" xmlns:xlink="http://www.w3.org/1999/xlink" x="0px" y="0px"
	 viewBox="0 0 54 54" style="enable-background:new 0 0 54 54;" xml:space="preserve">
<g>
	<path d="M50.4,41.2c0-0.3,0.1-0.6,0.1-0.9V10.1c0-5.5-4.5-10-10-10H10.2c-5.5,0-10,4.5-10,10v30.2c0,5.5,4.5,10,10,10h30.2
		c0.2,0,0.4,0,0.6,0c1.1,2.1,3.4,3.5,6,3.5c3.7,0,6.8-3,6.8-6.8C53.8,44.6,52.4,42.4,50.4,41.2z M40.1,47c0,0.4,0,0.9,0.1,1.3h-30
		v0.1c-4.4,0-8-3.6-8-8V10.1c0-4.4,3.6-8,8-8h30.2c4.4,0,8,3.6,8,8v30.2v0.1c-0.5-0.1-1-0.2-1.5-0.2C43.2,40.2,40.1,43.2,40.1,47z
		 M51,48.1h-3v3c0,0.5-0.5,1-1,1s-1-0.5-1-1v-3h-3c-0.5,0-1-0.5-1-1s0.5-1,1-1h3v-3c0-0.5,0.5-1,1-1s1,0.5,1,1v3h3c0.6,0,1,0.5,1,1
		S51.6,48.1,51,48.1z"/>
	<path d="M32.6,23.3c3.1,0,5.6-2.5,5.6-5.6s-2.5-5.6-5.6-5.6S27,14.6,27,17.7S29.5,23.3,32.6,23.3z"/>
	<path d="M17.7,23.3c3.1,0,5.6-2.5,5.6-5.6s-2.5-5.6-5.6-5.6s-5.6,2.5-5.6,5.6S14.6,23.3,17.7,23.3z"/>
	<path d="M17.7,27c-4.3,0-13,2.2-13,6.5v2.8c0,1,0.8,1.9,1.9,1.9h22.3c1,0,1.9-0.8,1.9-1.9v-2.8C30.7,29.2,22.1,27,17.7,27z"/>
	<path d="M45.6,36.3v-2.8c0-4.3-8.7-6.5-13-6.5c-0.5,0-1.2,0-1.8,0.1c0,0,0.1,0.1,0.1,0.1c2.1,1.5,3.6,3.6,3.6,6.3v2.8
		c0,0.7-0.1,1.3-0.3,1.9h9.6C44.8,38.1,45.6,37.3,45.6,36.3z"/>
</g>
</svg>
